<mxfile host="65bd71144e">
    <diagram id="p6UBjin0IFwzOMtOB1aO" name="第1頁">
        <mxGraphModel dx="554" dy="407" grid="1" gridSize="10" guides="1" tooltips="1" connect="1" arrows="1" fold="1" page="1" pageScale="1" pageWidth="827" pageHeight="1169" background="#1A1A1A" math="0" shadow="0">
            <root>
                <mxCell id="0"/>
                <mxCell id="1" parent="0"/>
                <mxCell id="107" value="" style="swimlane;startSize=20;horizontal=1;containerType=tree;newEdgeStyle={&quot;edgeStyle&quot;:&quot;elbowEdgeStyle&quot;,&quot;startArrow&quot;:&quot;none&quot;,&quot;endArrow&quot;:&quot;none&quot;};sketch=1;hachureGap=4;jiggle=2;curveFitting=1;fontFamily=Architects Daughter;fontSource=https%3A%2F%2Ffonts.googleapis.com%2Fcss%3Ffamily%3DArchitects%2BDaughter;fontSize=30;spacingTop=2;spacing=10;" parent="1" vertex="1">
                    <mxGeometry x="280" y="540" width="2070" height="720" as="geometry"/>
                </mxCell>
                <mxCell id="108" value="" style="edgeStyle=elbowEdgeStyle;elbow=vertical;sourcePerimeterSpacing=0;targetPerimeterSpacing=0;startArrow=none;endArrow=none;rounded=0;curved=0;sketch=1;hachureGap=4;jiggle=2;curveFitting=1;fontFamily=Architects Daughter;fontSource=https%3A%2F%2Ffonts.googleapis.com%2Fcss%3Ffamily%3DArchitects%2BDaughter;fontSize=30;shape=flexArrow;" parent="107" source="110" target="111" edge="1">
                    <mxGeometry relative="1" as="geometry"/>
                </mxCell>
                <mxCell id="109" value="" style="edgeStyle=elbowEdgeStyle;elbow=vertical;sourcePerimeterSpacing=0;targetPerimeterSpacing=0;startArrow=none;endArrow=none;rounded=0;curved=0;sketch=1;hachureGap=4;jiggle=2;curveFitting=1;fontFamily=Architects Daughter;fontSource=https%3A%2F%2Ffonts.googleapis.com%2Fcss%3Ffamily%3DArchitects%2BDaughter;fontSize=30;shape=flexArrow;" parent="107" source="110" target="112" edge="1">
                    <mxGeometry relative="1" as="geometry"/>
                </mxCell>
                <UserObject label="員工" treeRoot="1" id="110">
                    <mxCell style="whiteSpace=wrap;html=1;align=center;treeFolding=1;treeMoving=1;newEdgeStyle={&quot;edgeStyle&quot;:&quot;elbowEdgeStyle&quot;,&quot;startArrow&quot;:&quot;none&quot;,&quot;endArrow&quot;:&quot;none&quot;};sketch=1;hachureGap=4;jiggle=2;curveFitting=1;strokeColor=#BEF0E9;fontFamily=Architects Daughter;fontSource=https%3A%2F%2Ffonts.googleapis.com%2Fcss%3Ffamily%3DArchitects%2BDaughter;fontSize=30;" parent="107" vertex="1">
                        <mxGeometry x="962.5" y="70" width="120" height="60" as="geometry"/>
                    </mxCell>
                </UserObject>
                <mxCell id="111" value="登入" style="whiteSpace=wrap;html=1;align=center;verticalAlign=middle;treeFolding=1;treeMoving=1;newEdgeStyle={&quot;edgeStyle&quot;:&quot;elbowEdgeStyle&quot;,&quot;startArrow&quot;:&quot;none&quot;,&quot;endArrow&quot;:&quot;none&quot;};sketch=1;hachureGap=4;jiggle=2;curveFitting=1;strokeColor=#BEF0E9;fontFamily=Architects Daughter;fontSource=https%3A%2F%2Ffonts.googleapis.com%2Fcss%3Ffamily%3DArchitects%2BDaughter;fontSize=30;" parent="107" vertex="1">
                    <mxGeometry x="30" y="221" width="100" height="60" as="geometry"/>
                </mxCell>
                <mxCell id="112" value="首頁" style="whiteSpace=wrap;html=1;align=center;verticalAlign=middle;treeFolding=1;treeMoving=1;newEdgeStyle={&quot;edgeStyle&quot;:&quot;elbowEdgeStyle&quot;,&quot;startArrow&quot;:&quot;none&quot;,&quot;endArrow&quot;:&quot;none&quot;};sketch=1;hachureGap=4;jiggle=2;curveFitting=1;strokeColor=#BEF0E9;fontFamily=Architects Daughter;fontSource=https%3A%2F%2Ffonts.googleapis.com%2Fcss%3Ffamily%3DArchitects%2BDaughter;fontSize=30;" parent="107" vertex="1">
                    <mxGeometry x="266" y="222" width="100" height="60" as="geometry"/>
                </mxCell>
                <mxCell id="113" value="" style="edgeStyle=elbowEdgeStyle;elbow=vertical;sourcePerimeterSpacing=0;targetPerimeterSpacing=0;startArrow=none;endArrow=none;rounded=0;curved=0;sketch=1;hachureGap=4;jiggle=2;curveFitting=1;fontFamily=Architects Daughter;fontSource=https%3A%2F%2Ffonts.googleapis.com%2Fcss%3Ffamily%3DArchitects%2BDaughter;fontSize=30;shape=flexArrow;" parent="107" source="110" target="114" edge="1">
                    <mxGeometry relative="1" as="geometry">
                        <mxPoint x="710" y="600" as="sourcePoint"/>
                    </mxGeometry>
                </mxCell>
                <mxCell id="157" style="edgeStyle=elbowEdgeStyle;shape=flexArrow;sketch=1;hachureGap=4;jiggle=2;curveFitting=1;html=1;startArrow=none;endArrow=none;exitX=0.25;exitY=1;exitDx=0;exitDy=0;entryX=0;entryY=0.5;entryDx=0;entryDy=0;fontFamily=Architects Daughter;fontSource=https%3A%2F%2Ffonts.googleapis.com%2Fcss%3Ffamily%3DArchitects%2BDaughter;fontSize=30;elbow=vertical;" parent="107" source="114" target="152" edge="1">
                    <mxGeometry relative="1" as="geometry">
                        <Array as="points">
                            <mxPoint x="460" y="360"/>
                        </Array>
                    </mxGeometry>
                </mxCell>
                <mxCell id="158" style="edgeStyle=elbowEdgeStyle;shape=flexArrow;sketch=1;hachureGap=4;jiggle=2;curveFitting=1;html=1;startArrow=none;endArrow=none;exitX=0.25;exitY=1;exitDx=0;exitDy=0;entryX=0;entryY=0.5;entryDx=0;entryDy=0;fontFamily=Architects Daughter;fontSource=https%3A%2F%2Ffonts.googleapis.com%2Fcss%3Ffamily%3DArchitects%2BDaughter;fontSize=30;elbow=vertical;" parent="107" source="114" target="153" edge="1">
                    <mxGeometry relative="1" as="geometry">
                        <Array as="points">
                            <mxPoint x="460" y="457"/>
                        </Array>
                    </mxGeometry>
                </mxCell>
                <mxCell id="159" style="edgeStyle=elbowEdgeStyle;shape=flexArrow;sketch=1;hachureGap=4;jiggle=2;curveFitting=1;html=1;startArrow=none;endArrow=none;exitX=0.25;exitY=1;exitDx=0;exitDy=0;entryX=0;entryY=0.5;entryDx=0;entryDy=0;fontFamily=Architects Daughter;fontSource=https%3A%2F%2Ffonts.googleapis.com%2Fcss%3Ffamily%3DArchitects%2BDaughter;fontSize=30;elbow=vertical;" parent="107" source="114" target="155" edge="1">
                    <mxGeometry relative="1" as="geometry">
                        <Array as="points">
                            <mxPoint x="450" y="553"/>
                        </Array>
                    </mxGeometry>
                </mxCell>
                <mxCell id="160" style="edgeStyle=elbowEdgeStyle;shape=flexArrow;sketch=1;hachureGap=4;jiggle=2;curveFitting=1;html=1;startArrow=none;endArrow=none;exitX=0.25;exitY=1;exitDx=0;exitDy=0;entryX=0;entryY=0.5;entryDx=0;entryDy=0;fontFamily=Architects Daughter;fontSource=https%3A%2F%2Ffonts.googleapis.com%2Fcss%3Ffamily%3DArchitects%2BDaughter;fontSize=30;elbow=vertical;" parent="107" source="114" target="154" edge="1">
                    <mxGeometry relative="1" as="geometry">
                        <Array as="points">
                            <mxPoint x="450" y="650"/>
                        </Array>
                    </mxGeometry>
                </mxCell>
                <mxCell id="114" value="個人主頁" style="whiteSpace=wrap;html=1;align=center;verticalAlign=middle;treeFolding=1;treeMoving=1;newEdgeStyle={&quot;edgeStyle&quot;:&quot;elbowEdgeStyle&quot;,&quot;startArrow&quot;:&quot;none&quot;,&quot;endArrow&quot;:&quot;none&quot;};sketch=1;hachureGap=4;jiggle=2;curveFitting=1;strokeColor=#BEF0E9;fontFamily=Architects Daughter;fontSource=https%3A%2F%2Ffonts.googleapis.com%2Fcss%3Ffamily%3DArchitects%2BDaughter;fontSize=30;" parent="107" vertex="1">
                    <mxGeometry x="488" y="223" width="127" height="60" as="geometry"/>
                </mxCell>
                <mxCell id="115" value="" style="edgeStyle=elbowEdgeStyle;elbow=vertical;sourcePerimeterSpacing=0;targetPerimeterSpacing=0;startArrow=none;endArrow=none;rounded=0;curved=0;sketch=1;hachureGap=4;jiggle=2;curveFitting=1;fontFamily=Architects Daughter;fontSource=https%3A%2F%2Ffonts.googleapis.com%2Fcss%3Ffamily%3DArchitects%2BDaughter;fontSize=30;shape=flexArrow;" parent="107" source="110" target="116" edge="1">
                    <mxGeometry relative="1" as="geometry">
                        <mxPoint x="710" y="600" as="sourcePoint"/>
                    </mxGeometry>
                </mxCell>
                <mxCell id="116" value="顯示條碼" style="whiteSpace=wrap;html=1;align=center;verticalAlign=middle;treeFolding=1;treeMoving=1;newEdgeStyle={&quot;edgeStyle&quot;:&quot;elbowEdgeStyle&quot;,&quot;startArrow&quot;:&quot;none&quot;,&quot;endArrow&quot;:&quot;none&quot;};sketch=1;hachureGap=4;jiggle=2;curveFitting=1;strokeColor=#BEF0E9;fontFamily=Architects Daughter;fontSource=https%3A%2F%2Ffonts.googleapis.com%2Fcss%3Ffamily%3DArchitects%2BDaughter;fontSize=30;" parent="107" vertex="1">
                    <mxGeometry x="717" y="224" width="140" height="60" as="geometry"/>
                </mxCell>
                <mxCell id="122" value="" style="edgeStyle=elbowEdgeStyle;elbow=vertical;sourcePerimeterSpacing=0;targetPerimeterSpacing=0;startArrow=none;endArrow=none;rounded=0;curved=0;sketch=1;hachureGap=4;jiggle=2;curveFitting=1;fontFamily=Architects Daughter;fontSource=https%3A%2F%2Ffonts.googleapis.com%2Fcss%3Ffamily%3DArchitects%2BDaughter;fontSize=30;shape=flexArrow;" parent="107" source="110" target="123" edge="1">
                    <mxGeometry relative="1" as="geometry">
                        <mxPoint x="713" y="670" as="sourcePoint"/>
                    </mxGeometry>
                </mxCell>
                <mxCell id="150" style="edgeStyle=elbowEdgeStyle;shape=flexArrow;sketch=1;hachureGap=4;jiggle=2;curveFitting=1;html=1;startArrow=none;endArrow=none;exitX=0.25;exitY=1;exitDx=0;exitDy=0;entryX=0;entryY=0.5;entryDx=0;entryDy=0;fontFamily=Architects Daughter;fontSource=https%3A%2F%2Ffonts.googleapis.com%2Fcss%3Ffamily%3DArchitects%2BDaughter;fontSize=30;elbow=vertical;" parent="107" source="123" target="148" edge="1">
                    <mxGeometry relative="1" as="geometry">
                        <Array as="points">
                            <mxPoint x="890" y="320"/>
                        </Array>
                    </mxGeometry>
                </mxCell>
                <mxCell id="151" style="edgeStyle=elbowEdgeStyle;shape=flexArrow;sketch=1;hachureGap=4;jiggle=2;curveFitting=1;html=1;startArrow=none;endArrow=none;exitX=0.25;exitY=1;exitDx=0;exitDy=0;entryX=0;entryY=0.667;entryDx=0;entryDy=0;fontFamily=Architects Daughter;fontSource=https%3A%2F%2Ffonts.googleapis.com%2Fcss%3Ffamily%3DArchitects%2BDaughter;fontSize=30;elbow=vertical;entryPerimeter=0;" parent="107" source="123" target="149" edge="1">
                    <mxGeometry relative="1" as="geometry">
                        <Array as="points">
                            <mxPoint x="890" y="370"/>
                        </Array>
                    </mxGeometry>
                </mxCell>
                <mxCell id="123" value="員工收點" style="whiteSpace=wrap;html=1;align=center;verticalAlign=middle;treeFolding=1;treeMoving=1;newEdgeStyle={&quot;edgeStyle&quot;:&quot;elbowEdgeStyle&quot;,&quot;startArrow&quot;:&quot;none&quot;,&quot;endArrow&quot;:&quot;none&quot;};sketch=1;hachureGap=4;jiggle=2;curveFitting=1;strokeColor=#BEF0E9;fontFamily=Architects Daughter;fontSource=https%3A%2F%2Ffonts.googleapis.com%2Fcss%3Ffamily%3DArchitects%2BDaughter;fontSize=30;" parent="107" vertex="1">
                    <mxGeometry x="956" y="226" width="133" height="60" as="geometry"/>
                </mxCell>
                <mxCell id="126" value="" style="edgeStyle=elbowEdgeStyle;elbow=vertical;sourcePerimeterSpacing=0;targetPerimeterSpacing=0;startArrow=none;endArrow=none;rounded=0;curved=0;sketch=1;hachureGap=4;jiggle=2;curveFitting=1;fontFamily=Architects Daughter;fontSource=https%3A%2F%2Ffonts.googleapis.com%2Fcss%3Ffamily%3DArchitects%2BDaughter;fontSize=30;shape=flexArrow;" parent="107" source="110" target="127" edge="1">
                    <mxGeometry relative="1" as="geometry">
                        <mxPoint x="713" y="670" as="sourcePoint"/>
                    </mxGeometry>
                </mxCell>
                <mxCell id="127" value="佈告欄" style="whiteSpace=wrap;html=1;align=center;verticalAlign=middle;treeFolding=1;treeMoving=1;newEdgeStyle={&quot;edgeStyle&quot;:&quot;elbowEdgeStyle&quot;,&quot;startArrow&quot;:&quot;none&quot;,&quot;endArrow&quot;:&quot;none&quot;};sketch=1;hachureGap=4;jiggle=2;curveFitting=1;strokeColor=#BEF0E9;fontFamily=Architects Daughter;fontSource=https%3A%2F%2Ffonts.googleapis.com%2Fcss%3Ffamily%3DArchitects%2BDaughter;fontSize=30;" parent="107" vertex="1">
                    <mxGeometry x="1208" y="228" width="100" height="60" as="geometry"/>
                </mxCell>
                <mxCell id="128" value="" style="edgeStyle=elbowEdgeStyle;elbow=vertical;sourcePerimeterSpacing=0;targetPerimeterSpacing=0;startArrow=none;endArrow=none;rounded=0;curved=0;sketch=1;hachureGap=4;jiggle=2;curveFitting=1;fontFamily=Architects Daughter;fontSource=https%3A%2F%2Ffonts.googleapis.com%2Fcss%3Ffamily%3DArchitects%2BDaughter;fontSize=30;shape=flexArrow;" parent="107" source="110" target="129" edge="1">
                    <mxGeometry relative="1" as="geometry">
                        <mxPoint x="713" y="670" as="sourcePoint"/>
                    </mxGeometry>
                </mxCell>
                <mxCell id="311" style="edgeStyle=elbowEdgeStyle;shape=flexArrow;sketch=1;hachureGap=4;jiggle=2;curveFitting=1;html=1;startArrow=none;endArrow=none;exitX=0.25;exitY=1;exitDx=0;exitDy=0;entryX=0;entryY=0.75;entryDx=0;entryDy=0;fontFamily=Architects Daughter;fontSource=https%3A%2F%2Ffonts.googleapis.com%2Fcss%3Ffamily%3DArchitects%2BDaughter;fontSize=30;elbow=vertical;" parent="107" source="129" target="299" edge="1">
                    <mxGeometry relative="1" as="geometry">
                        <Array as="points">
                            <mxPoint x="1360" y="350"/>
                        </Array>
                    </mxGeometry>
                </mxCell>
                <mxCell id="129" value="客戶收鑽" style="whiteSpace=wrap;html=1;align=center;verticalAlign=middle;treeFolding=1;treeMoving=1;newEdgeStyle={&quot;edgeStyle&quot;:&quot;elbowEdgeStyle&quot;,&quot;startArrow&quot;:&quot;none&quot;,&quot;endArrow&quot;:&quot;none&quot;};sketch=1;hachureGap=4;jiggle=2;curveFitting=1;strokeColor=#BEF0E9;fontFamily=Architects Daughter;fontSource=https%3A%2F%2Ffonts.googleapis.com%2Fcss%3Ffamily%3DArchitects%2BDaughter;fontSize=30;" parent="107" vertex="1">
                    <mxGeometry x="1427" y="229" width="133" height="60" as="geometry"/>
                </mxCell>
                <mxCell id="132" value="" style="edgeStyle=elbowEdgeStyle;elbow=vertical;sourcePerimeterSpacing=0;targetPerimeterSpacing=0;startArrow=none;endArrow=none;rounded=0;curved=0;sketch=1;hachureGap=4;jiggle=2;curveFitting=1;fontFamily=Architects Daughter;fontSource=https%3A%2F%2Ffonts.googleapis.com%2Fcss%3Ffamily%3DArchitects%2BDaughter;fontSize=30;shape=flexArrow;" parent="107" source="110" target="133" edge="1">
                    <mxGeometry relative="1" as="geometry">
                        <mxPoint x="713" y="670" as="sourcePoint"/>
                    </mxGeometry>
                </mxCell>
                <mxCell id="133" value="收費紀錄" style="whiteSpace=wrap;html=1;align=center;verticalAlign=middle;treeFolding=1;treeMoving=1;newEdgeStyle={&quot;edgeStyle&quot;:&quot;elbowEdgeStyle&quot;,&quot;startArrow&quot;:&quot;none&quot;,&quot;endArrow&quot;:&quot;none&quot;};sketch=1;hachureGap=4;jiggle=2;curveFitting=1;strokeColor=#BEF0E9;fontFamily=Architects Daughter;fontSource=https%3A%2F%2Ffonts.googleapis.com%2Fcss%3Ffamily%3DArchitects%2BDaughter;fontSize=30;" parent="107" vertex="1">
                    <mxGeometry x="1900" y="226" width="130" height="60" as="geometry"/>
                </mxCell>
                <mxCell id="148" value="掃描收取" style="rounded=1;whiteSpace=wrap;html=1;sketch=1;hachureGap=4;jiggle=2;curveFitting=1;fontFamily=Architects Daughter;fontSource=https%3A%2F%2Ffonts.googleapis.com%2Fcss%3Ffamily%3DArchitects%2BDaughter;fontSize=30;" parent="107" vertex="1">
                    <mxGeometry x="946.5" y="330" width="152" height="60" as="geometry"/>
                </mxCell>
                <mxCell id="149" value="讀取圖片" style="rounded=1;whiteSpace=wrap;html=1;sketch=1;hachureGap=4;jiggle=2;curveFitting=1;fontFamily=Architects Daughter;fontSource=https%3A%2F%2Ffonts.googleapis.com%2Fcss%3Ffamily%3DArchitects%2BDaughter;fontSize=30;" parent="107" vertex="1">
                    <mxGeometry x="946.5" y="440" width="152" height="60" as="geometry"/>
                </mxCell>
                <mxCell id="152" value="交易密碼" style="rounded=1;whiteSpace=wrap;html=1;sketch=1;hachureGap=4;jiggle=2;curveFitting=1;fontFamily=Architects Daughter;fontSource=https%3A%2F%2Ffonts.googleapis.com%2Fcss%3Ffamily%3DArchitects%2BDaughter;fontSize=30;" parent="107" vertex="1">
                    <mxGeometry x="500" y="330" width="150" height="60" as="geometry"/>
                </mxCell>
                <mxCell id="153" value="序號兌換" style="rounded=1;whiteSpace=wrap;html=1;sketch=1;hachureGap=4;jiggle=2;curveFitting=1;fontFamily=Architects Daughter;fontSource=https%3A%2F%2Ffonts.googleapis.com%2Fcss%3Ffamily%3DArchitects%2BDaughter;fontSize=30;" parent="107" vertex="1">
                    <mxGeometry x="500" y="427" width="170" height="60" as="geometry"/>
                </mxCell>
                <mxCell id="154" value="交易紀錄" style="rounded=1;whiteSpace=wrap;html=1;sketch=1;hachureGap=4;jiggle=2;curveFitting=1;fontFamily=Architects Daughter;fontSource=https%3A%2F%2Ffonts.googleapis.com%2Fcss%3Ffamily%3DArchitects%2BDaughter;fontSize=30;" parent="107" vertex="1">
                    <mxGeometry x="500" y="629" width="150" height="60" as="geometry"/>
                </mxCell>
                <mxCell id="155" value="電腦設備" style="rounded=1;whiteSpace=wrap;html=1;sketch=1;hachureGap=4;jiggle=2;curveFitting=1;fontFamily=Architects Daughter;fontSource=https%3A%2F%2Ffonts.googleapis.com%2Fcss%3Ffamily%3DArchitects%2BDaughter;fontSize=30;" parent="107" vertex="1">
                    <mxGeometry x="500" y="523" width="170" height="60" as="geometry"/>
                </mxCell>
                <mxCell id="206" value="" style="edgeStyle=elbowEdgeStyle;elbow=vertical;sourcePerimeterSpacing=0;targetPerimeterSpacing=0;startArrow=none;endArrow=none;rounded=0;curved=0;sketch=1;hachureGap=4;jiggle=2;curveFitting=1;fontFamily=Architects Daughter;fontSource=https%3A%2F%2Ffonts.googleapis.com%2Fcss%3Ffamily%3DArchitects%2BDaughter;fontSize=30;shape=flexArrow;" parent="107" source="110" target="207" edge="1">
                    <mxGeometry relative="1" as="geometry">
                        <mxPoint x="1208" y="670" as="sourcePoint"/>
                    </mxGeometry>
                </mxCell>
                <mxCell id="207" value="客戶資料" style="whiteSpace=wrap;html=1;align=center;verticalAlign=middle;treeFolding=1;treeMoving=1;newEdgeStyle={&quot;edgeStyle&quot;:&quot;elbowEdgeStyle&quot;,&quot;startArrow&quot;:&quot;none&quot;,&quot;endArrow&quot;:&quot;none&quot;};sketch=1;hachureGap=4;jiggle=2;curveFitting=1;strokeColor=#BEF0E9;fontFamily=Architects Daughter;fontSource=https%3A%2F%2Ffonts.googleapis.com%2Fcss%3Ffamily%3DArchitects%2BDaughter;fontSize=30;" parent="107" vertex="1">
                    <mxGeometry x="1659" y="227" width="140" height="60" as="geometry"/>
                </mxCell>
                <mxCell id="208" value="" style="edgeStyle=elbowEdgeStyle;elbow=vertical;sourcePerimeterSpacing=0;targetPerimeterSpacing=0;startArrow=none;endArrow=none;rounded=0;curved=0;sketch=1;hachureGap=4;jiggle=2;curveFitting=1;fontFamily=Architects Daughter;fontSource=https%3A%2F%2Ffonts.googleapis.com%2Fcss%3Ffamily%3DArchitects%2BDaughter;fontSize=30;shape=flexArrow;" parent="107" source="207" target="209" edge="1">
                    <mxGeometry relative="1" as="geometry">
                        <mxPoint x="1208" y="670" as="sourcePoint"/>
                    </mxGeometry>
                </mxCell>
                <mxCell id="209" value="客戶詳細資料" style="whiteSpace=wrap;html=1;align=center;verticalAlign=middle;treeFolding=1;treeMoving=1;newEdgeStyle={&quot;edgeStyle&quot;:&quot;elbowEdgeStyle&quot;,&quot;startArrow&quot;:&quot;none&quot;,&quot;endArrow&quot;:&quot;none&quot;};sketch=1;hachureGap=4;jiggle=2;curveFitting=1;strokeColor=#BEF0E9;fontFamily=Architects Daughter;fontSource=https%3A%2F%2Ffonts.googleapis.com%2Fcss%3Ffamily%3DArchitects%2BDaughter;fontSize=30;" parent="107" vertex="1">
                    <mxGeometry x="1629" y="340" width="200" height="60" as="geometry"/>
                </mxCell>
                <mxCell id="297" value="" style="edgeStyle=elbowEdgeStyle;elbow=vertical;sourcePerimeterSpacing=0;targetPerimeterSpacing=0;startArrow=none;endArrow=none;rounded=0;curved=0;sketch=1;hachureGap=4;jiggle=2;curveFitting=1;fontFamily=Architects Daughter;fontSource=https%3A%2F%2Ffonts.googleapis.com%2Fcss%3Ffamily%3DArchitects%2BDaughter;fontSize=30;shape=flexArrow;" parent="107" source="111" target="298" edge="1">
                    <mxGeometry relative="1" as="geometry">
                        <mxPoint x="1208" y="670" as="sourcePoint"/>
                    </mxGeometry>
                </mxCell>
                <mxCell id="298" value="簡訊驗證" style="whiteSpace=wrap;html=1;align=center;verticalAlign=middle;treeFolding=1;treeMoving=1;newEdgeStyle={&quot;edgeStyle&quot;:&quot;elbowEdgeStyle&quot;,&quot;startArrow&quot;:&quot;none&quot;,&quot;endArrow&quot;:&quot;none&quot;};sketch=1;hachureGap=4;jiggle=2;curveFitting=1;strokeColor=#BEF0E9;fontFamily=Architects Daughter;fontSource=https%3A%2F%2Ffonts.googleapis.com%2Fcss%3Ffamily%3DArchitects%2BDaughter;fontSize=30;" parent="107" vertex="1">
                    <mxGeometry x="15" y="321" width="130" height="60" as="geometry"/>
                </mxCell>
                <mxCell id="303" value="讀取圖片" style="rounded=1;whiteSpace=wrap;html=1;sketch=1;hachureGap=4;jiggle=2;curveFitting=1;fontFamily=Architects Daughter;fontSource=https%3A%2F%2Ffonts.googleapis.com%2Fcss%3Ffamily%3DArchitects%2BDaughter;fontSize=30;" parent="107" vertex="1">
                    <mxGeometry x="1410" y="450" width="130" height="60" as="geometry"/>
                </mxCell>
                <mxCell id="304" style="edgeStyle=elbowEdgeStyle;shape=flexArrow;sketch=1;hachureGap=4;jiggle=2;curveFitting=1;html=1;startArrow=none;endArrow=none;exitX=0.25;exitY=1;exitDx=0;exitDy=0;entryX=0;entryY=0.5;entryDx=0;entryDy=0;fontFamily=Architects Daughter;fontSource=https%3A%2F%2Ffonts.googleapis.com%2Fcss%3Ffamily%3DArchitects%2BDaughter;fontSize=30;elbow=vertical;" parent="107" source="129" target="303" edge="1">
                    <mxGeometry relative="1" as="geometry">
                        <Array as="points">
                            <mxPoint x="1360" y="480"/>
                        </Array>
                        <mxPoint x="1460.25" y="289" as="sourcePoint"/>
                        <mxPoint x="1480" y="490" as="targetPoint"/>
                    </mxGeometry>
                </mxCell>
                <mxCell id="299" value="掃描收費" style="whiteSpace=wrap;html=1;align=center;verticalAlign=middle;treeFolding=1;treeMoving=1;newEdgeStyle={&quot;edgeStyle&quot;:&quot;elbowEdgeStyle&quot;,&quot;startArrow&quot;:&quot;none&quot;,&quot;endArrow&quot;:&quot;none&quot;};sketch=1;hachureGap=4;jiggle=2;curveFitting=1;strokeColor=#BEF0E9;fontFamily=Architects Daughter;fontSource=https%3A%2F%2Ffonts.googleapis.com%2Fcss%3Ffamily%3DArchitects%2BDaughter;fontSize=30;" parent="107" vertex="1">
                    <mxGeometry x="1410" y="340" width="130" height="60" as="geometry"/>
                </mxCell>
                <mxCell id="201" value="&lt;font style=&quot;font-size: 30px;&quot;&gt;員工使用流程&lt;/font&gt;" style="text;html=1;strokeColor=none;fillColor=none;align=center;verticalAlign=middle;whiteSpace=wrap;rounded=0;sketch=1;hachureGap=4;jiggle=2;curveFitting=1;fontFamily=Architects Daughter;fontSource=https%3A%2F%2Ffonts.googleapis.com%2Fcss%3Ffamily%3DArchitects%2BDaughter;fontSize=30;" parent="1" vertex="1">
                    <mxGeometry x="280" y="480" width="201" height="30" as="geometry"/>
                </mxCell>
                <mxCell id="312" value="" style="swimlane;startSize=20;horizontal=1;containerType=tree;newEdgeStyle={&quot;edgeStyle&quot;:&quot;elbowEdgeStyle&quot;,&quot;startArrow&quot;:&quot;none&quot;,&quot;endArrow&quot;:&quot;none&quot;};sketch=1;hachureGap=4;jiggle=2;curveFitting=1;fontFamily=Architects Daughter;fontSource=https%3A%2F%2Ffonts.googleapis.com%2Fcss%3Ffamily%3DArchitects%2BDaughter;fontSize=30;spacingTop=2;spacing=10;" parent="1" vertex="1">
                    <mxGeometry x="300" y="1520" width="2070" height="720" as="geometry"/>
                </mxCell>
                <mxCell id="313" value="" style="edgeStyle=elbowEdgeStyle;elbow=vertical;sourcePerimeterSpacing=0;targetPerimeterSpacing=0;startArrow=none;endArrow=none;rounded=0;curved=0;sketch=1;hachureGap=4;jiggle=2;curveFitting=1;fontFamily=Architects Daughter;fontSource=https%3A%2F%2Ffonts.googleapis.com%2Fcss%3Ffamily%3DArchitects%2BDaughter;fontSize=30;shape=flexArrow;" parent="312" source="315" target="316" edge="1">
                    <mxGeometry relative="1" as="geometry"/>
                </mxCell>
                <mxCell id="314" value="" style="edgeStyle=elbowEdgeStyle;elbow=vertical;sourcePerimeterSpacing=0;targetPerimeterSpacing=0;startArrow=none;endArrow=none;rounded=0;curved=0;sketch=1;hachureGap=4;jiggle=2;curveFitting=1;fontFamily=Architects Daughter;fontSource=https%3A%2F%2Ffonts.googleapis.com%2Fcss%3Ffamily%3DArchitects%2BDaughter;fontSize=30;shape=flexArrow;" parent="312" source="315" target="317" edge="1">
                    <mxGeometry relative="1" as="geometry"/>
                </mxCell>
                <UserObject label="客戶" treeRoot="1" id="315">
                    <mxCell style="whiteSpace=wrap;html=1;align=center;treeFolding=1;treeMoving=1;newEdgeStyle={&quot;edgeStyle&quot;:&quot;elbowEdgeStyle&quot;,&quot;startArrow&quot;:&quot;none&quot;,&quot;endArrow&quot;:&quot;none&quot;};sketch=1;hachureGap=4;jiggle=2;curveFitting=1;strokeColor=#BEF0E9;fontFamily=Architects Daughter;fontSource=https%3A%2F%2Ffonts.googleapis.com%2Fcss%3Ffamily%3DArchitects%2BDaughter;fontSize=30;" parent="312" vertex="1">
                        <mxGeometry x="962.5" y="70" width="120" height="60" as="geometry"/>
                    </mxCell>
                </UserObject>
                <mxCell id="316" value="登入" style="whiteSpace=wrap;html=1;align=center;verticalAlign=middle;treeFolding=1;treeMoving=1;newEdgeStyle={&quot;edgeStyle&quot;:&quot;elbowEdgeStyle&quot;,&quot;startArrow&quot;:&quot;none&quot;,&quot;endArrow&quot;:&quot;none&quot;};sketch=1;hachureGap=4;jiggle=2;curveFitting=1;strokeColor=#BEF0E9;fontFamily=Architects Daughter;fontSource=https%3A%2F%2Ffonts.googleapis.com%2Fcss%3Ffamily%3DArchitects%2BDaughter;fontSize=30;" parent="312" vertex="1">
                    <mxGeometry x="30" y="221" width="100" height="60" as="geometry"/>
                </mxCell>
                <mxCell id="317" value="首頁" style="whiteSpace=wrap;html=1;align=center;verticalAlign=middle;treeFolding=1;treeMoving=1;newEdgeStyle={&quot;edgeStyle&quot;:&quot;elbowEdgeStyle&quot;,&quot;startArrow&quot;:&quot;none&quot;,&quot;endArrow&quot;:&quot;none&quot;};sketch=1;hachureGap=4;jiggle=2;curveFitting=1;strokeColor=#BEF0E9;fontFamily=Architects Daughter;fontSource=https%3A%2F%2Ffonts.googleapis.com%2Fcss%3Ffamily%3DArchitects%2BDaughter;fontSize=30;" parent="312" vertex="1">
                    <mxGeometry x="266" y="222" width="100" height="60" as="geometry"/>
                </mxCell>
                <mxCell id="318" value="" style="edgeStyle=elbowEdgeStyle;elbow=vertical;sourcePerimeterSpacing=0;targetPerimeterSpacing=0;startArrow=none;endArrow=none;rounded=0;curved=0;sketch=1;hachureGap=4;jiggle=2;curveFitting=1;fontFamily=Architects Daughter;fontSource=https%3A%2F%2Ffonts.googleapis.com%2Fcss%3Ffamily%3DArchitects%2BDaughter;fontSize=30;shape=flexArrow;" parent="312" source="315" target="323" edge="1">
                    <mxGeometry relative="1" as="geometry">
                        <mxPoint x="710" y="600" as="sourcePoint"/>
                    </mxGeometry>
                </mxCell>
                <mxCell id="319" style="edgeStyle=elbowEdgeStyle;shape=flexArrow;sketch=1;hachureGap=4;jiggle=2;curveFitting=1;html=1;startArrow=none;endArrow=none;exitX=0.25;exitY=1;exitDx=0;exitDy=0;entryX=0;entryY=0.5;entryDx=0;entryDy=0;fontFamily=Architects Daughter;fontSource=https%3A%2F%2Ffonts.googleapis.com%2Fcss%3Ffamily%3DArchitects%2BDaughter;fontSize=30;elbow=vertical;" parent="312" source="323" target="339" edge="1">
                    <mxGeometry relative="1" as="geometry">
                        <Array as="points">
                            <mxPoint x="460" y="360"/>
                        </Array>
                    </mxGeometry>
                </mxCell>
                <mxCell id="320" style="edgeStyle=elbowEdgeStyle;shape=flexArrow;sketch=1;hachureGap=4;jiggle=2;curveFitting=1;html=1;startArrow=none;endArrow=none;exitX=0.25;exitY=1;exitDx=0;exitDy=0;entryX=0;entryY=0.5;entryDx=0;entryDy=0;fontFamily=Architects Daughter;fontSource=https%3A%2F%2Ffonts.googleapis.com%2Fcss%3Ffamily%3DArchitects%2BDaughter;fontSize=30;elbow=vertical;" parent="312" source="323" target="340" edge="1">
                    <mxGeometry relative="1" as="geometry">
                        <Array as="points">
                            <mxPoint x="460" y="457"/>
                        </Array>
                    </mxGeometry>
                </mxCell>
                <mxCell id="321" style="edgeStyle=elbowEdgeStyle;shape=flexArrow;sketch=1;hachureGap=4;jiggle=2;curveFitting=1;html=1;startArrow=none;endArrow=none;exitX=0.25;exitY=1;exitDx=0;exitDy=0;entryX=0;entryY=0.5;entryDx=0;entryDy=0;fontFamily=Architects Daughter;fontSource=https%3A%2F%2Ffonts.googleapis.com%2Fcss%3Ffamily%3DArchitects%2BDaughter;fontSize=30;elbow=vertical;" parent="312" source="323" target="342" edge="1">
                    <mxGeometry relative="1" as="geometry">
                        <Array as="points">
                            <mxPoint x="450" y="553"/>
                        </Array>
                    </mxGeometry>
                </mxCell>
                <mxCell id="322" style="edgeStyle=elbowEdgeStyle;shape=flexArrow;sketch=1;hachureGap=4;jiggle=2;curveFitting=1;html=1;startArrow=none;endArrow=none;exitX=0.25;exitY=1;exitDx=0;exitDy=0;entryX=0;entryY=0.5;entryDx=0;entryDy=0;fontFamily=Architects Daughter;fontSource=https%3A%2F%2Ffonts.googleapis.com%2Fcss%3Ffamily%3DArchitects%2BDaughter;fontSize=30;elbow=vertical;" parent="312" source="323" target="341" edge="1">
                    <mxGeometry relative="1" as="geometry">
                        <Array as="points">
                            <mxPoint x="450" y="650"/>
                        </Array>
                    </mxGeometry>
                </mxCell>
                <mxCell id="323" value="個人主頁" style="whiteSpace=wrap;html=1;align=center;verticalAlign=middle;treeFolding=1;treeMoving=1;newEdgeStyle={&quot;edgeStyle&quot;:&quot;elbowEdgeStyle&quot;,&quot;startArrow&quot;:&quot;none&quot;,&quot;endArrow&quot;:&quot;none&quot;};sketch=1;hachureGap=4;jiggle=2;curveFitting=1;strokeColor=#BEF0E9;fontFamily=Architects Daughter;fontSource=https%3A%2F%2Ffonts.googleapis.com%2Fcss%3Ffamily%3DArchitects%2BDaughter;fontSize=30;" parent="312" vertex="1">
                    <mxGeometry x="488" y="223" width="127" height="60" as="geometry"/>
                </mxCell>
                <mxCell id="324" value="" style="edgeStyle=elbowEdgeStyle;elbow=vertical;sourcePerimeterSpacing=0;targetPerimeterSpacing=0;startArrow=none;endArrow=none;rounded=0;curved=0;sketch=1;hachureGap=4;jiggle=2;curveFitting=1;fontFamily=Architects Daughter;fontSource=https%3A%2F%2Ffonts.googleapis.com%2Fcss%3Ffamily%3DArchitects%2BDaughter;fontSize=30;shape=flexArrow;" parent="312" source="315" target="325" edge="1">
                    <mxGeometry relative="1" as="geometry">
                        <mxPoint x="710" y="600" as="sourcePoint"/>
                    </mxGeometry>
                </mxCell>
                <mxCell id="325" value="顯示條碼" style="whiteSpace=wrap;html=1;align=center;verticalAlign=middle;treeFolding=1;treeMoving=1;newEdgeStyle={&quot;edgeStyle&quot;:&quot;elbowEdgeStyle&quot;,&quot;startArrow&quot;:&quot;none&quot;,&quot;endArrow&quot;:&quot;none&quot;};sketch=1;hachureGap=4;jiggle=2;curveFitting=1;strokeColor=#BEF0E9;fontFamily=Architects Daughter;fontSource=https%3A%2F%2Ffonts.googleapis.com%2Fcss%3Ffamily%3DArchitects%2BDaughter;fontSize=30;" parent="312" vertex="1">
                    <mxGeometry x="717" y="224" width="140" height="60" as="geometry"/>
                </mxCell>
                <mxCell id="326" value="" style="edgeStyle=elbowEdgeStyle;elbow=vertical;sourcePerimeterSpacing=0;targetPerimeterSpacing=0;startArrow=none;endArrow=none;rounded=0;curved=0;sketch=1;hachureGap=4;jiggle=2;curveFitting=1;fontFamily=Architects Daughter;fontSource=https%3A%2F%2Ffonts.googleapis.com%2Fcss%3Ffamily%3DArchitects%2BDaughter;fontSize=30;shape=flexArrow;" parent="312" source="315" target="329" edge="1">
                    <mxGeometry relative="1" as="geometry">
                        <mxPoint x="713" y="670" as="sourcePoint"/>
                    </mxGeometry>
                </mxCell>
                <mxCell id="327" style="edgeStyle=elbowEdgeStyle;shape=flexArrow;sketch=1;hachureGap=4;jiggle=2;curveFitting=1;html=1;startArrow=none;endArrow=none;exitX=0.25;exitY=1;exitDx=0;exitDy=0;entryX=0;entryY=0.5;entryDx=0;entryDy=0;fontFamily=Architects Daughter;fontSource=https%3A%2F%2Ffonts.googleapis.com%2Fcss%3Ffamily%3DArchitects%2BDaughter;fontSize=30;elbow=vertical;" parent="312" source="329" target="337" edge="1">
                    <mxGeometry relative="1" as="geometry">
                        <Array as="points">
                            <mxPoint x="890" y="320"/>
                        </Array>
                    </mxGeometry>
                </mxCell>
                <mxCell id="328" style="edgeStyle=elbowEdgeStyle;shape=flexArrow;sketch=1;hachureGap=4;jiggle=2;curveFitting=1;html=1;startArrow=none;endArrow=none;exitX=0.25;exitY=1;exitDx=0;exitDy=0;entryX=0;entryY=0.667;entryDx=0;entryDy=0;fontFamily=Architects Daughter;fontSource=https%3A%2F%2Ffonts.googleapis.com%2Fcss%3Ffamily%3DArchitects%2BDaughter;fontSize=30;elbow=vertical;entryPerimeter=0;" parent="312" source="329" target="338" edge="1">
                    <mxGeometry relative="1" as="geometry">
                        <Array as="points">
                            <mxPoint x="890" y="370"/>
                        </Array>
                    </mxGeometry>
                </mxCell>
                <mxCell id="329" value="轉鑽" style="whiteSpace=wrap;html=1;align=center;verticalAlign=middle;treeFolding=1;treeMoving=1;newEdgeStyle={&quot;edgeStyle&quot;:&quot;elbowEdgeStyle&quot;,&quot;startArrow&quot;:&quot;none&quot;,&quot;endArrow&quot;:&quot;none&quot;};sketch=1;hachureGap=4;jiggle=2;curveFitting=1;strokeColor=#BEF0E9;fontFamily=Architects Daughter;fontSource=https%3A%2F%2Ffonts.googleapis.com%2Fcss%3Ffamily%3DArchitects%2BDaughter;fontSize=30;" parent="312" vertex="1">
                    <mxGeometry x="956" y="226" width="133" height="60" as="geometry"/>
                </mxCell>
                <mxCell id="330" value="" style="edgeStyle=elbowEdgeStyle;elbow=vertical;sourcePerimeterSpacing=0;targetPerimeterSpacing=0;startArrow=none;endArrow=none;rounded=0;curved=0;sketch=1;hachureGap=4;jiggle=2;curveFitting=1;fontFamily=Architects Daughter;fontSource=https%3A%2F%2Ffonts.googleapis.com%2Fcss%3Ffamily%3DArchitects%2BDaughter;fontSize=30;shape=flexArrow;" parent="312" source="315" target="331" edge="1">
                    <mxGeometry relative="1" as="geometry">
                        <mxPoint x="713" y="670" as="sourcePoint"/>
                    </mxGeometry>
                </mxCell>
                <mxCell id="331" value="儲值" style="whiteSpace=wrap;html=1;align=center;verticalAlign=middle;treeFolding=1;treeMoving=1;newEdgeStyle={&quot;edgeStyle&quot;:&quot;elbowEdgeStyle&quot;,&quot;startArrow&quot;:&quot;none&quot;,&quot;endArrow&quot;:&quot;none&quot;};sketch=1;hachureGap=4;jiggle=2;curveFitting=1;strokeColor=#BEF0E9;fontFamily=Architects Daughter;fontSource=https%3A%2F%2Ffonts.googleapis.com%2Fcss%3Ffamily%3DArchitects%2BDaughter;fontSize=30;" parent="312" vertex="1">
                    <mxGeometry x="1208" y="228" width="100" height="60" as="geometry"/>
                </mxCell>
                <mxCell id="332" value="" style="edgeStyle=elbowEdgeStyle;elbow=vertical;sourcePerimeterSpacing=0;targetPerimeterSpacing=0;startArrow=none;endArrow=none;rounded=0;curved=0;sketch=1;hachureGap=4;jiggle=2;curveFitting=1;fontFamily=Architects Daughter;fontSource=https%3A%2F%2Ffonts.googleapis.com%2Fcss%3Ffamily%3DArchitects%2BDaughter;fontSize=30;shape=flexArrow;" parent="312" source="315" target="334" edge="1">
                    <mxGeometry relative="1" as="geometry">
                        <mxPoint x="713" y="670" as="sourcePoint"/>
                    </mxGeometry>
                </mxCell>
                <mxCell id="334" value="排行榜" style="whiteSpace=wrap;html=1;align=center;verticalAlign=middle;treeFolding=1;treeMoving=1;newEdgeStyle={&quot;edgeStyle&quot;:&quot;elbowEdgeStyle&quot;,&quot;startArrow&quot;:&quot;none&quot;,&quot;endArrow&quot;:&quot;none&quot;};sketch=1;hachureGap=4;jiggle=2;curveFitting=1;strokeColor=#BEF0E9;fontFamily=Architects Daughter;fontSource=https%3A%2F%2Ffonts.googleapis.com%2Fcss%3Ffamily%3DArchitects%2BDaughter;fontSize=30;" parent="312" vertex="1">
                    <mxGeometry x="1427" y="229" width="133" height="60" as="geometry"/>
                </mxCell>
                <mxCell id="335" value="" style="edgeStyle=elbowEdgeStyle;elbow=vertical;sourcePerimeterSpacing=0;targetPerimeterSpacing=0;startArrow=none;endArrow=none;rounded=0;curved=0;sketch=1;hachureGap=4;jiggle=2;curveFitting=1;fontFamily=Architects Daughter;fontSource=https%3A%2F%2Ffonts.googleapis.com%2Fcss%3Ffamily%3DArchitects%2BDaughter;fontSize=30;shape=flexArrow;" parent="312" source="315" target="336" edge="1">
                    <mxGeometry relative="1" as="geometry">
                        <mxPoint x="713" y="670" as="sourcePoint"/>
                    </mxGeometry>
                </mxCell>
                <mxCell id="336" value="使用紀錄" style="whiteSpace=wrap;html=1;align=center;verticalAlign=middle;treeFolding=1;treeMoving=1;newEdgeStyle={&quot;edgeStyle&quot;:&quot;elbowEdgeStyle&quot;,&quot;startArrow&quot;:&quot;none&quot;,&quot;endArrow&quot;:&quot;none&quot;};sketch=1;hachureGap=4;jiggle=2;curveFitting=1;strokeColor=#BEF0E9;fontFamily=Architects Daughter;fontSource=https%3A%2F%2Ffonts.googleapis.com%2Fcss%3Ffamily%3DArchitects%2BDaughter;fontSize=30;" parent="312" vertex="1">
                    <mxGeometry x="1900" y="226" width="130" height="60" as="geometry"/>
                </mxCell>
                <mxCell id="337" value="掃描收取" style="rounded=1;whiteSpace=wrap;html=1;sketch=1;hachureGap=4;jiggle=2;curveFitting=1;fontFamily=Architects Daughter;fontSource=https%3A%2F%2Ffonts.googleapis.com%2Fcss%3Ffamily%3DArchitects%2BDaughter;fontSize=30;" parent="312" vertex="1">
                    <mxGeometry x="946.5" y="330" width="152" height="60" as="geometry"/>
                </mxCell>
                <mxCell id="338" value="讀取圖片" style="rounded=1;whiteSpace=wrap;html=1;sketch=1;hachureGap=4;jiggle=2;curveFitting=1;fontFamily=Architects Daughter;fontSource=https%3A%2F%2Ffonts.googleapis.com%2Fcss%3Ffamily%3DArchitects%2BDaughter;fontSize=30;" parent="312" vertex="1">
                    <mxGeometry x="946.5" y="440" width="152" height="60" as="geometry"/>
                </mxCell>
                <mxCell id="339" value="交易密碼" style="rounded=1;whiteSpace=wrap;html=1;sketch=1;hachureGap=4;jiggle=2;curveFitting=1;fontFamily=Architects Daughter;fontSource=https%3A%2F%2Ffonts.googleapis.com%2Fcss%3Ffamily%3DArchitects%2BDaughter;fontSize=30;" parent="312" vertex="1">
                    <mxGeometry x="500" y="330" width="150" height="60" as="geometry"/>
                </mxCell>
                <mxCell id="340" value="序號兌換" style="rounded=1;whiteSpace=wrap;html=1;sketch=1;hachureGap=4;jiggle=2;curveFitting=1;fontFamily=Architects Daughter;fontSource=https%3A%2F%2Ffonts.googleapis.com%2Fcss%3Ffamily%3DArchitects%2BDaughter;fontSize=30;" parent="312" vertex="1">
                    <mxGeometry x="500" y="427" width="170" height="60" as="geometry"/>
                </mxCell>
                <mxCell id="341" value="交易紀錄" style="rounded=1;whiteSpace=wrap;html=1;sketch=1;hachureGap=4;jiggle=2;curveFitting=1;fontFamily=Architects Daughter;fontSource=https%3A%2F%2Ffonts.googleapis.com%2Fcss%3Ffamily%3DArchitects%2BDaughter;fontSize=30;" parent="312" vertex="1">
                    <mxGeometry x="500" y="629" width="150" height="60" as="geometry"/>
                </mxCell>
                <mxCell id="342" value="電腦設備" style="rounded=1;whiteSpace=wrap;html=1;sketch=1;hachureGap=4;jiggle=2;curveFitting=1;fontFamily=Architects Daughter;fontSource=https%3A%2F%2Ffonts.googleapis.com%2Fcss%3Ffamily%3DArchitects%2BDaughter;fontSize=30;" parent="312" vertex="1">
                    <mxGeometry x="500" y="523" width="170" height="60" as="geometry"/>
                </mxCell>
                <mxCell id="343" value="" style="edgeStyle=elbowEdgeStyle;elbow=vertical;sourcePerimeterSpacing=0;targetPerimeterSpacing=0;startArrow=none;endArrow=none;rounded=0;curved=0;sketch=1;hachureGap=4;jiggle=2;curveFitting=1;fontFamily=Architects Daughter;fontSource=https%3A%2F%2Ffonts.googleapis.com%2Fcss%3Ffamily%3DArchitects%2BDaughter;fontSize=30;shape=flexArrow;" parent="312" source="315" target="344" edge="1">
                    <mxGeometry relative="1" as="geometry">
                        <mxPoint x="1208" y="670" as="sourcePoint"/>
                    </mxGeometry>
                </mxCell>
                <mxCell id="344" value="DCT介紹" style="whiteSpace=wrap;html=1;align=center;verticalAlign=middle;treeFolding=1;treeMoving=1;newEdgeStyle={&quot;edgeStyle&quot;:&quot;elbowEdgeStyle&quot;,&quot;startArrow&quot;:&quot;none&quot;,&quot;endArrow&quot;:&quot;none&quot;};sketch=1;hachureGap=4;jiggle=2;curveFitting=1;strokeColor=#BEF0E9;fontFamily=Architects Daughter;fontSource=https%3A%2F%2Ffonts.googleapis.com%2Fcss%3Ffamily%3DArchitects%2BDaughter;fontSize=30;" parent="312" vertex="1">
                    <mxGeometry x="1659" y="227" width="140" height="60" as="geometry"/>
                </mxCell>
                <mxCell id="347" value="" style="edgeStyle=elbowEdgeStyle;elbow=vertical;sourcePerimeterSpacing=0;targetPerimeterSpacing=0;startArrow=none;endArrow=none;rounded=0;curved=0;sketch=1;hachureGap=4;jiggle=2;curveFitting=1;fontFamily=Architects Daughter;fontSource=https%3A%2F%2Ffonts.googleapis.com%2Fcss%3Ffamily%3DArchitects%2BDaughter;fontSize=30;shape=flexArrow;" parent="312" source="316" target="348" edge="1">
                    <mxGeometry relative="1" as="geometry">
                        <mxPoint x="1208" y="670" as="sourcePoint"/>
                    </mxGeometry>
                </mxCell>
                <mxCell id="348" value="簡訊驗證" style="whiteSpace=wrap;html=1;align=center;verticalAlign=middle;treeFolding=1;treeMoving=1;newEdgeStyle={&quot;edgeStyle&quot;:&quot;elbowEdgeStyle&quot;,&quot;startArrow&quot;:&quot;none&quot;,&quot;endArrow&quot;:&quot;none&quot;};sketch=1;hachureGap=4;jiggle=2;curveFitting=1;strokeColor=#BEF0E9;fontFamily=Architects Daughter;fontSource=https%3A%2F%2Ffonts.googleapis.com%2Fcss%3Ffamily%3DArchitects%2BDaughter;fontSize=30;" parent="312" vertex="1">
                    <mxGeometry x="15" y="321" width="130" height="60" as="geometry"/>
                </mxCell>
                <mxCell id="352" value="&lt;font style=&quot;font-size: 30px;&quot;&gt;客戶使用流程&lt;/font&gt;" style="text;html=1;strokeColor=none;fillColor=none;align=center;verticalAlign=middle;whiteSpace=wrap;rounded=0;sketch=1;hachureGap=4;jiggle=2;curveFitting=1;fontFamily=Architects Daughter;fontSource=https%3A%2F%2Ffonts.googleapis.com%2Fcss%3Ffamily%3DArchitects%2BDaughter;fontSize=30;" parent="1" vertex="1">
                    <mxGeometry x="300" y="1460" width="201" height="30" as="geometry"/>
                </mxCell>
                <mxCell id="353" value="" style="swimlane;startSize=20;horizontal=1;containerType=tree;newEdgeStyle={&quot;edgeStyle&quot;:&quot;elbowEdgeStyle&quot;,&quot;startArrow&quot;:&quot;none&quot;,&quot;endArrow&quot;:&quot;none&quot;};sketch=1;hachureGap=4;jiggle=2;curveFitting=1;fontFamily=Architects Daughter;fontSource=https%3A%2F%2Ffonts.googleapis.com%2Fcss%3Ffamily%3DArchitects%2BDaughter;fontSize=30;spacingTop=2;spacing=10;" parent="1" vertex="1">
                    <mxGeometry x="300" y="2420" width="1870" height="500" as="geometry"/>
                </mxCell>
                <mxCell id="354" value="" style="edgeStyle=elbowEdgeStyle;elbow=vertical;sourcePerimeterSpacing=0;targetPerimeterSpacing=0;startArrow=none;endArrow=none;rounded=0;curved=0;sketch=1;hachureGap=4;jiggle=2;curveFitting=1;fontFamily=Architects Daughter;fontSource=https%3A%2F%2Ffonts.googleapis.com%2Fcss%3Ffamily%3DArchitects%2BDaughter;fontSize=30;shape=flexArrow;" parent="353" source="356" target="357" edge="1">
                    <mxGeometry relative="1" as="geometry"/>
                </mxCell>
                <mxCell id="355" value="" style="edgeStyle=elbowEdgeStyle;elbow=vertical;sourcePerimeterSpacing=0;targetPerimeterSpacing=0;startArrow=none;endArrow=none;rounded=0;curved=0;sketch=1;hachureGap=4;jiggle=2;curveFitting=1;fontFamily=Architects Daughter;fontSource=https%3A%2F%2Ffonts.googleapis.com%2Fcss%3Ffamily%3DArchitects%2BDaughter;fontSize=30;shape=flexArrow;" parent="353" source="356" target="358" edge="1">
                    <mxGeometry relative="1" as="geometry"/>
                </mxCell>
                <UserObject label="客戶" treeRoot="1" id="356">
                    <mxCell style="whiteSpace=wrap;html=1;align=center;treeFolding=1;treeMoving=1;newEdgeStyle={&quot;edgeStyle&quot;:&quot;elbowEdgeStyle&quot;,&quot;startArrow&quot;:&quot;none&quot;,&quot;endArrow&quot;:&quot;none&quot;};sketch=1;hachureGap=4;jiggle=2;curveFitting=1;strokeColor=#BEF0E9;fontFamily=Architects Daughter;fontSource=https%3A%2F%2Ffonts.googleapis.com%2Fcss%3Ffamily%3DArchitects%2BDaughter;fontSize=30;" parent="353" vertex="1">
                        <mxGeometry x="868" y="70" width="120" height="60" as="geometry"/>
                    </mxCell>
                </UserObject>
                <mxCell id="357" value="登入" style="whiteSpace=wrap;html=1;align=center;verticalAlign=middle;treeFolding=1;treeMoving=1;newEdgeStyle={&quot;edgeStyle&quot;:&quot;elbowEdgeStyle&quot;,&quot;startArrow&quot;:&quot;none&quot;,&quot;endArrow&quot;:&quot;none&quot;};sketch=1;hachureGap=4;jiggle=2;curveFitting=1;strokeColor=#BEF0E9;fontFamily=Architects Daughter;fontSource=https%3A%2F%2Ffonts.googleapis.com%2Fcss%3Ffamily%3DArchitects%2BDaughter;fontSize=30;" parent="353" vertex="1">
                    <mxGeometry x="30" y="221" width="100" height="60" as="geometry"/>
                </mxCell>
                <mxCell id="358" value="首頁" style="whiteSpace=wrap;html=1;align=center;verticalAlign=middle;treeFolding=1;treeMoving=1;newEdgeStyle={&quot;edgeStyle&quot;:&quot;elbowEdgeStyle&quot;,&quot;startArrow&quot;:&quot;none&quot;,&quot;endArrow&quot;:&quot;none&quot;};sketch=1;hachureGap=4;jiggle=2;curveFitting=1;strokeColor=#BEF0E9;fontFamily=Architects Daughter;fontSource=https%3A%2F%2Ffonts.googleapis.com%2Fcss%3Ffamily%3DArchitects%2BDaughter;fontSize=30;" parent="353" vertex="1">
                    <mxGeometry x="266" y="222" width="100" height="60" as="geometry"/>
                </mxCell>
                <mxCell id="359" value="" style="edgeStyle=elbowEdgeStyle;elbow=vertical;sourcePerimeterSpacing=0;targetPerimeterSpacing=0;startArrow=none;endArrow=none;rounded=0;curved=0;sketch=1;hachureGap=4;jiggle=2;curveFitting=1;fontFamily=Architects Daughter;fontSource=https%3A%2F%2Ffonts.googleapis.com%2Fcss%3Ffamily%3DArchitects%2BDaughter;fontSize=30;shape=flexArrow;" parent="353" source="356" target="364" edge="1">
                    <mxGeometry relative="1" as="geometry">
                        <mxPoint x="710" y="600" as="sourcePoint"/>
                    </mxGeometry>
                </mxCell>
                <mxCell id="360" style="edgeStyle=elbowEdgeStyle;shape=flexArrow;sketch=1;hachureGap=4;jiggle=2;curveFitting=1;html=1;startArrow=none;endArrow=none;exitX=0.25;exitY=1;exitDx=0;exitDy=0;entryX=0;entryY=0.5;entryDx=0;entryDy=0;fontFamily=Architects Daughter;fontSource=https%3A%2F%2Ffonts.googleapis.com%2Fcss%3Ffamily%3DArchitects%2BDaughter;fontSize=30;elbow=vertical;" parent="353" source="364" target="379" edge="1">
                    <mxGeometry relative="1" as="geometry">
                        <Array as="points">
                            <mxPoint x="460" y="360"/>
                        </Array>
                    </mxGeometry>
                </mxCell>
                <mxCell id="364" value="個人主頁" style="whiteSpace=wrap;html=1;align=center;verticalAlign=middle;treeFolding=1;treeMoving=1;newEdgeStyle={&quot;edgeStyle&quot;:&quot;elbowEdgeStyle&quot;,&quot;startArrow&quot;:&quot;none&quot;,&quot;endArrow&quot;:&quot;none&quot;};sketch=1;hachureGap=4;jiggle=2;curveFitting=1;strokeColor=#BEF0E9;fontFamily=Architects Daughter;fontSource=https%3A%2F%2Ffonts.googleapis.com%2Fcss%3Ffamily%3DArchitects%2BDaughter;fontSize=30;" parent="353" vertex="1">
                    <mxGeometry x="488" y="223" width="127" height="60" as="geometry"/>
                </mxCell>
                <mxCell id="365" value="" style="edgeStyle=elbowEdgeStyle;elbow=vertical;sourcePerimeterSpacing=0;targetPerimeterSpacing=0;startArrow=none;endArrow=none;rounded=0;curved=0;sketch=1;hachureGap=4;jiggle=2;curveFitting=1;fontFamily=Architects Daughter;fontSource=https%3A%2F%2Ffonts.googleapis.com%2Fcss%3Ffamily%3DArchitects%2BDaughter;fontSize=30;shape=flexArrow;" parent="353" source="356" target="366" edge="1">
                    <mxGeometry relative="1" as="geometry">
                        <mxPoint x="710" y="600" as="sourcePoint"/>
                    </mxGeometry>
                </mxCell>
                <mxCell id="366" value="顯示條碼" style="whiteSpace=wrap;html=1;align=center;verticalAlign=middle;treeFolding=1;treeMoving=1;newEdgeStyle={&quot;edgeStyle&quot;:&quot;elbowEdgeStyle&quot;,&quot;startArrow&quot;:&quot;none&quot;,&quot;endArrow&quot;:&quot;none&quot;};sketch=1;hachureGap=4;jiggle=2;curveFitting=1;strokeColor=#BEF0E9;fontFamily=Architects Daughter;fontSource=https%3A%2F%2Ffonts.googleapis.com%2Fcss%3Ffamily%3DArchitects%2BDaughter;fontSize=30;" parent="353" vertex="1">
                    <mxGeometry x="717" y="224" width="140" height="60" as="geometry"/>
                </mxCell>
                <mxCell id="371" value="" style="edgeStyle=elbowEdgeStyle;elbow=vertical;sourcePerimeterSpacing=0;targetPerimeterSpacing=0;startArrow=none;endArrow=none;rounded=0;curved=0;sketch=1;hachureGap=4;jiggle=2;curveFitting=1;fontFamily=Architects Daughter;fontSource=https%3A%2F%2Ffonts.googleapis.com%2Fcss%3Ffamily%3DArchitects%2BDaughter;fontSize=30;shape=flexArrow;" parent="353" source="356" target="372" edge="1">
                    <mxGeometry relative="1" as="geometry">
                        <mxPoint x="713" y="670" as="sourcePoint"/>
                    </mxGeometry>
                </mxCell>
                <mxCell id="372" value="儲值" style="whiteSpace=wrap;html=1;align=center;verticalAlign=middle;treeFolding=1;treeMoving=1;newEdgeStyle={&quot;edgeStyle&quot;:&quot;elbowEdgeStyle&quot;,&quot;startArrow&quot;:&quot;none&quot;,&quot;endArrow&quot;:&quot;none&quot;};sketch=1;hachureGap=4;jiggle=2;curveFitting=1;strokeColor=#BEF0E9;fontFamily=Architects Daughter;fontSource=https%3A%2F%2Ffonts.googleapis.com%2Fcss%3Ffamily%3DArchitects%2BDaughter;fontSize=30;" parent="353" vertex="1">
                    <mxGeometry x="1051" y="228" width="100" height="60" as="geometry"/>
                </mxCell>
                <mxCell id="373" value="" style="edgeStyle=elbowEdgeStyle;elbow=vertical;sourcePerimeterSpacing=0;targetPerimeterSpacing=0;startArrow=none;endArrow=none;rounded=0;curved=0;sketch=1;hachureGap=4;jiggle=2;curveFitting=1;fontFamily=Architects Daughter;fontSource=https%3A%2F%2Ffonts.googleapis.com%2Fcss%3Ffamily%3DArchitects%2BDaughter;fontSize=30;shape=flexArrow;" parent="353" source="356" target="374" edge="1">
                    <mxGeometry relative="1" as="geometry">
                        <mxPoint x="713" y="670" as="sourcePoint"/>
                    </mxGeometry>
                </mxCell>
                <mxCell id="374" value="排行榜" style="whiteSpace=wrap;html=1;align=center;verticalAlign=middle;treeFolding=1;treeMoving=1;newEdgeStyle={&quot;edgeStyle&quot;:&quot;elbowEdgeStyle&quot;,&quot;startArrow&quot;:&quot;none&quot;,&quot;endArrow&quot;:&quot;none&quot;};sketch=1;hachureGap=4;jiggle=2;curveFitting=1;strokeColor=#BEF0E9;fontFamily=Architects Daughter;fontSource=https%3A%2F%2Ffonts.googleapis.com%2Fcss%3Ffamily%3DArchitects%2BDaughter;fontSize=30;" parent="353" vertex="1">
                    <mxGeometry x="1349" y="229" width="133" height="60" as="geometry"/>
                </mxCell>
                <mxCell id="379" value="電話號碼驗證" style="rounded=1;whiteSpace=wrap;html=1;sketch=1;hachureGap=4;jiggle=2;curveFitting=1;fontFamily=Architects Daughter;fontSource=https%3A%2F%2Ffonts.googleapis.com%2Fcss%3Ffamily%3DArchitects%2BDaughter;fontSize=30;" parent="353" vertex="1">
                    <mxGeometry x="500" y="330" width="190" height="60" as="geometry"/>
                </mxCell>
                <mxCell id="383" value="" style="edgeStyle=elbowEdgeStyle;elbow=vertical;sourcePerimeterSpacing=0;targetPerimeterSpacing=0;startArrow=none;endArrow=none;rounded=0;curved=0;sketch=1;hachureGap=4;jiggle=2;curveFitting=1;fontFamily=Architects Daughter;fontSource=https%3A%2F%2Ffonts.googleapis.com%2Fcss%3Ffamily%3DArchitects%2BDaughter;fontSize=30;shape=flexArrow;" parent="353" source="356" target="384" edge="1">
                    <mxGeometry relative="1" as="geometry">
                        <mxPoint x="1208" y="670" as="sourcePoint"/>
                    </mxGeometry>
                </mxCell>
                <mxCell id="384" value="DCT介紹" style="whiteSpace=wrap;html=1;align=center;verticalAlign=middle;treeFolding=1;treeMoving=1;newEdgeStyle={&quot;edgeStyle&quot;:&quot;elbowEdgeStyle&quot;,&quot;startArrow&quot;:&quot;none&quot;,&quot;endArrow&quot;:&quot;none&quot;};sketch=1;hachureGap=4;jiggle=2;curveFitting=1;strokeColor=#BEF0E9;fontFamily=Architects Daughter;fontSource=https%3A%2F%2Ffonts.googleapis.com%2Fcss%3Ffamily%3DArchitects%2BDaughter;fontSize=30;" parent="353" vertex="1">
                    <mxGeometry x="1659" y="227" width="140" height="60" as="geometry"/>
                </mxCell>
                <mxCell id="387" value="&lt;font style=&quot;font-size: 30px;&quot;&gt;訪客使用流程&lt;/font&gt;" style="text;html=1;strokeColor=none;fillColor=none;align=center;verticalAlign=middle;whiteSpace=wrap;rounded=0;sketch=1;hachureGap=4;jiggle=2;curveFitting=1;fontFamily=Architects Daughter;fontSource=https%3A%2F%2Ffonts.googleapis.com%2Fcss%3Ffamily%3DArchitects%2BDaughter;fontSize=30;" parent="1" vertex="1">
                    <mxGeometry x="300" y="2360" width="201" height="30" as="geometry"/>
                </mxCell>
            </root>
        </mxGraphModel>
    </diagram>
    <diagram id="xUiWt9ArzWKDNRdxWiC2" name="第2頁">
        <mxGraphModel dx="554" dy="407" grid="1" gridSize="10" guides="1" tooltips="1" connect="1" arrows="1" fold="1" page="1" pageScale="1" pageWidth="827" pageHeight="1169" math="0" shadow="0">
            <root>
                <mxCell id="0"/>
                <mxCell id="1" parent="0"/>
                <mxCell id="MvA6YoeCBSSW8jFn9R81-1" value="sdfsdf" style="rounded=1;whiteSpace=wrap;html=1;sketch=1;hachureGap=4;jiggle=2;curveFitting=1;fontFamily=Architects Daughter;fontSource=https%3A%2F%2Ffonts.googleapis.com%2Fcss%3Ffamily%3DArchitects%2BDaughter;fontSize=20;" parent="1" vertex="1">
                    <mxGeometry x="230" y="180" width="120" height="60" as="geometry"/>
                </mxCell>
            </root>
        </mxGraphModel>
    </diagram>
</mxfile>
